# xmcd
#
# Track frame offsets:
# 150
# 58423
# 99208
# 126342
# 142815
# 186601
#
# Disc length: 3730 seconds
#
#
# Revision: 2
# Processed by: cddbd v1.5.2PL0 Copyright (c) Steve Scherf et al.
# Submitted via: FreeRIP 2.945 
#
DISCID=570e9006
DTITLE=Motorpsycho - Heavy Metal Fruit
DYEAR=2010
DGENRE=Rock
TTITLE0=Starhammer
TTITLE1=X-3 (Knuckelheads In Space) - The Getaway Special
TTITLE2=The Bomb-Proof Roll And Beyond (for Arnie Hassle)
TTITLE3=Close Your Eyes
TTITLE4=W. B. A. T.
TTITLE5=Gullible's Travails (pt I - IV)
EXTD=
EXTT0=
EXTT1=
EXTT2=
EXTT3=
EXTT4=
EXTT5=
PLAYORDER=
